<?xml version="1.0" standalone="no"?>
<!DOCTYPE svg PUBLIC "-//W3C//DTD SVG 20010904//EN"
 "http://www.w3.org/TR/2001/REC-SVG-20010904/DTD/svg10.dtd">
<svg version="1.0" xmlns="http://www.w3.org/2000/svg"
 width="380.000000pt" height="92.000000pt" viewBox="0 0 380.000000 92.000000"
 preserveAspectRatio="xMidYMid meet">

<g transform="translate(0.000000,92.000000) scale(0.100000,-0.100000)"
fill="#000000" stroke="none">
<path d="M2344 911 c-60 -26 -72 -105 -24 -153 28 -27 36 -30 73 -25 79 11
114 94 65 152 -25 28 -79 40 -114 26z"/>
<path d="M1725 851 l-50 -6 -3 -393 -2 -393 72 3 c67 3 73 5 76 26 l3 23 30
-25 c100 -84 243 -46 305 81 27 55 29 65 29 183 0 111 -3 130 -24 173 -57 117
-187 151 -290 76 l-41 -29 0 145 0 145 -27 -2 c-16 0 -50 -4 -78 -7z m247
-342 c32 -17 48 -71 48 -164 0 -97 -15 -145 -54 -170 -32 -21 -80 -14 -113 17
-22 20 -23 29 -23 143 0 119 0 122 28 147 41 39 76 47 114 27z"/>
<path d="M174 428 l-109 -363 84 -3 c46 -2 86 -1 89 2 2 3 12 38 21 78 l17 73
110 3 111 3 18 -81 18 -80 89 0 c48 0 88 3 88 8 0 4 -48 168 -107 365 l-108
357 -106 0 -105 0 -110 -362z m256 67 l37 -155 -78 0 c-44 0 -79 3 -79 8 0 19
74 311 78 307 3 -2 21 -74 42 -160z"/>
<path d="M1015 621 c-22 -10 -49 -28 -59 -40 -26 -29 -36 -26 -36 9 l0 30 -75
0 -75 0 0 -280 0 -280 80 0 80 0 0 186 c0 172 2 189 21 220 33 53 73 68 103
38 14 -13 16 -48 16 -230 l0 -214 85 0 85 0 0 191 c0 160 3 195 17 219 37 63
104 63 117 0 3 -18 6 -117 6 -221 l0 -189 80 0 80 0 0 228 c0 201 -3 232 -19
269 -45 97 -168 111 -260 27 l-37 -33 -17 28 c-34 58 -118 76 -192 42z"/>
<path d="M2775 631 c-74 -19 -139 -72 -169 -136 -47 -98 -43 -242 9 -331 71
-120 241 -158 373 -83 185 106 171 454 -21 534 -45 19 -149 28 -192 16z m128
-131 c74 -59 59 -300 -20 -331 -45 -17 -93 0 -118 41 -28 48 -29 208 -2 258
29 53 94 68 140 32z"/>
<path d="M3487 626 c-20 -7 -52 -25 -71 -40 -19 -14 -37 -26 -40 -26 -2 0 -6
12 -8 28 -3 26 -5 27 -73 30 l-70 3 1 -258 c1 -142 2 -268 3 -280 1 -22 5 -23
75 -23 50 0 75 4 78 13 3 6 4 89 2 182 -2 184 3 205 52 244 32 25 67 27 88 5
14 -13 16 -48 16 -230 l0 -215 81 3 80 3 0 234 c0 205 -3 237 -18 264 -39 66
-119 92 -196 63z"/>
<path d="M2300 340 l0 -280 85 0 85 0 0 280 0 280 -85 0 -85 0 0 -280z"/>
</g>
</svg>
